<?xml version="1.0" encoding="UTF-8" standalone="no"?>
<!DOCTYPE svg PUBLIC "-//W3C//DTD SVG 1.1//EN" "http://www.w3.org/Graphics/SVG/1.1/DTD/svg11.dtd">
<svg width="100%" height="100%" viewBox="0 0 12094 12094" version="1.1" xmlns="http://www.w3.org/2000/svg" xmlns:xlink="http://www.w3.org/1999/xlink" xml:space="preserve" xmlns:serif="http://www.serif.com/" style="fill-rule:evenodd;clip-rule:evenodd;stroke-linejoin:round;stroke-miterlimit:2;">
    <path d="M2262.67,6032.4C2027.17,6268.35 1980.4,6604.47 2158.29,6782.53L5308.47,9935.65C5486.36,10113.7 5821.99,10066.7 6057.49,9830.75C6292.99,9594.8 6339.77,9258.68 6161.87,9080.62L3011.69,5927.5C2833.8,5749.44 2498.18,5796.44 2262.67,6032.4ZM9832.07,6062.83C10067.6,5826.89 10114.3,5490.74 9936.34,5312.64L6785.34,2158.7C6607.4,1980.6 6271.75,2027.55 6036.26,2263.49C5800.77,2499.42 5754.05,2835.57 5931.99,3013.68L9082.99,6167.61C9260.93,6345.72 9596.58,6298.77 9832.07,6062.83Z" style="fill:white;"/>
</svg>
