<?xml version="1.0" encoding="UTF-8" standalone="no"?>
<!DOCTYPE svg PUBLIC "-//W3C//DTD SVG 1.1//EN" "http://www.w3.org/Graphics/SVG/1.1/DTD/svg11.dtd">
<svg width="100%" height="100%" viewBox="0 0 12094 12094" version="1.1" xmlns="http://www.w3.org/2000/svg" xmlns:xlink="http://www.w3.org/1999/xlink" xml:space="preserve" xmlns:serif="http://www.serif.com/" style="fill-rule:evenodd;clip-rule:evenodd;stroke-linejoin:round;stroke-miterlimit:2;">
    <path d="M2057.5,7475.55C1897.69,7635.66 1865.95,7863.76 1986.66,7984.59L4107.91,10107.8C4228.63,10228.6 4456.39,10196.7 4616.2,10036.6C4776.01,9876.51 4807.75,9648.42 4687.03,9527.59L2565.78,7404.36C2445.07,7283.53 2217.31,7315.43 2057.5,7475.55ZM10037,4619.57C10196.8,4459.46 10228.5,4231.35 10107.8,4110.49L7985.99,1986.72C7865.24,1865.85 7637.47,1897.72 7477.66,2057.82C7317.86,2217.93 7286.15,2446.04 7406.9,2566.9L9528.7,4690.68C9649.45,4811.54 9877.22,4779.68 10037,4619.57Z" style="fill:white;"/>
</svg>
