<?xml version="1.0" encoding="UTF-8" standalone="no"?>
<!DOCTYPE svg PUBLIC "-//W3C//DTD SVG 1.1//EN" "http://www.w3.org/Graphics/SVG/1.1/DTD/svg11.dtd">
<svg width="100%" height="100%" viewBox="0 0 12094 12094" version="1.1" xmlns="http://www.w3.org/2000/svg" xmlns:xlink="http://www.w3.org/1999/xlink" xml:space="preserve" xmlns:serif="http://www.serif.com/" style="fill-rule:evenodd;clip-rule:evenodd;stroke-linejoin:round;stroke-miterlimit:2;">
    <path d="M2315.56,8680.59C2267.01,8729.24 2257.37,8798.54 2294.04,8835.25L3192.78,9734.82C3229.45,9771.53 3298.65,9761.84 3347.2,9713.19C3395.76,9664.54 3405.4,9595.24 3368.72,9558.53L2469.99,8658.96C2433.32,8622.25 2364.12,8631.94 2315.56,8680.59ZM9778.74,3414.37C9827.29,3365.72 9836.93,3296.42 9800.24,3259.7L8901.27,2359.89C8864.59,2323.17 8795.39,2332.85 8746.83,2381.5C8698.28,2430.14 8688.65,2499.45 8725.34,2536.17L9624.3,3435.97C9660.99,3472.69 9730.19,3463.01 9778.74,3414.37Z" style="fill:white;"/>
</svg>
